<?xml version="1.0" encoding="UTF-8" standalone="no"?>
<!-- Created with Inkscape (http://www.inkscape.org/) -->

<svg
   width="120"
   height="120"
   viewBox="0 0 120 120"
   version="1.1"
   id="svg1"
   inkscape:export-filename="marcos.svg"
   inkscape:export-xdpi="96"
   inkscape:export-ydpi="96"
   xmlns:inkscape="http://www.inkscape.org/namespaces/inkscape"
   xmlns:sodipodi="http://sodipodi.sourceforge.net/DTD/sodipodi-0.dtd"
   xmlns="http://www.w3.org/2000/svg"
   xmlns:svg="http://www.w3.org/2000/svg">
  <sodipodi:namedview
     id="namedview1"
     pagecolor="#ffffff"
     bordercolor="#111111"
     borderopacity="1"
     inkscape:showpageshadow="0"
     inkscape:pageopacity="0"
     inkscape:pagecheckerboard="1"
     inkscape:deskcolor="#d1d1d1"
     inkscape:document-units="px" />
  <defs
     id="defs1" />
  <g
     inkscape:label="Capa 1"
     inkscape:groupmode="layer"
     id="layer1">
    <path
       style="fill:#000000"
       d="M 57.891162,119.15898 C 57.648911,118.991 53.678008,113.8302 46.619619,104.50985 36.705037,91.418009 35.698801,90.054702 35.463879,89.395418 c -0.142016,-0.398555 -0.302437,-1.005133 -0.35649,-1.347951 -0.06888,-0.436868 -0.09769,-5.186454 -0.09633,-15.878978 0.0019,-14.732367 0.0077,-15.272553 0.170878,-15.747766 0.199896,-0.582314 0.551023,-0.860561 1.085966,-0.860561 0.375336,0 0.395611,0.02279 2.590254,2.911146 1.216576,1.601131 2.298955,3.122866 2.405287,3.381635 l 0.193329,0.470488 0.05087,10.997662 c 0.05551,12.002554 0.04147,11.686533 0.572265,12.879616 0.259387,0.583031 15.830889,21.142271 16.472098,21.748311 1.44807,1.36863 2.7206,1.15204 4.337704,-0.73831 0.391307,-0.45743 4.08107,-5.29241 8.199473,-10.744412 8.090794,-10.710702 7.80694,-10.291868 8.03018,-11.848741 0.05551,-0.387156 0.09144,-4.412015 0.09441,-10.57738 0.0026,-5.473828 0.03705,-10.358638 0.07646,-10.855132 0.04121,-0.519085 0.150761,-1.103407 0.257778,-1.374956 0.19298,-0.489676 3.654813,-5.214366 4.304548,-5.874823 0.649225,-0.659938 1.446779,-0.44053 1.76465,0.485457 0.163116,0.475173 0.168992,1.014083 0.170878,15.673142 0.0013,10.462336 -0.02818,15.397985 -0.09499,15.878978 -0.236941,1.705815 0.354837,0.855439 -11.483931,16.502237 -8.201893,10.84009 -10.935859,14.38532 -11.282486,14.6304 l -0.457484,0.32346 -2.102011,-0.005 c -1.990543,-0.005 -2.121845,-0.0191 -2.476026,-0.26465 z m 1.559565,-14.35344 c -0.2773,-0.15434 -0.69751,-0.47037 -0.9338,-0.7023 C 57.891833,103.4897 44.496022,85.700756 44.232112,85.133748 43.649763,83.88258 43.684632,84.631576 43.635644,72.321306 L 43.591177,61.14721 43.297179,60.386769 C 42.816173,59.142619 45.39299,62.595071 20.293433,29.566049 15.107085,22.741228 8.6882953,14.298905 6.029455,10.805331 2.7450651,6.4898181 1.1418866,4.3025392 1.0289081,3.9828898 0.60284036,2.7774184 0.9715666,1.6983883 1.934365,1.3331864 c 0.1855743,-0.070391 3.426351,-0.114415 8.422477,-0.114415 7.84698,0 8.817303,0.037649 9.000002,0.349204 0.02446,0.041706 0.184536,0.1485873 0.355733,0.237514 1.022431,0.531094 1.205192,0.7650788 19.791013,25.3379696 10.035257,13.267924 18.367897,24.363428 18.51698,24.656675 0.149082,0.293247 0.396622,0.88466 0.550088,1.314252 0.535154,1.498035 0.535675,1.50896 0.542678,11.385053 0.0058,8.201871 0.01987,9.044638 0.158807,9.524154 0.384819,1.32812 1.669092,1.450334 2.171528,0.206647 l 0.200973,-0.49747 0.04447,-9.527386 0.04447,-9.527387 0.20768,-0.761187 C 62.47826,51.948592 61.398068,53.44578 81.064843,27.410787 94.05078,10.219929 99.357454,3.2683571 99.591656,3.1412644 99.772173,3.0433045 99.978732,2.84434 100.05068,2.699121 c 0.20653,-0.4168891 1.31958,-1.1406619 1.62849,-1.0589484 0.19051,0.050393 0.29935,0.00498 0.42373,-0.1767949 0.1672,-0.2443448 0.17609,-0.2446056 8.31323,-0.2439503 5.329,4.291e-4 8.26022,0.042666 8.47659,0.1221422 0.1819,0.066817 0.45204,0.2564821 0.6003,0.4214771 0.26355,0.2933086 0.26962,0.3239929 0.27216,1.377539 l 0.003,1.0775482 -4.91617,6.4549681 c -2.70389,3.550232 -10.81912,14.221709 -18.033833,23.714393 -7.214717,9.492684 -14.36233,18.894156 -15.883586,20.892161 -2.753101,3.6159 -3.243014,4.372 -3.618177,5.584057 l -0.19697,0.636363 -0.04447,11.176726 -0.04447,11.176725 -0.300655,0.820725 c -0.281037,0.767173 -0.727855,1.387573 -6.847866,9.508155 -3.600967,4.778087 -6.843586,9.025853 -7.205822,9.439473 -1.225865,1.39978 -2.196613,1.75607 -3.22504,1.18366 z M 31.410051,60.836461 C 31.077835,60.717729 20.084494,46.231923 19.729152,45.444665 l -0.238908,-0.529299 -0.02612,-4.547905 -0.02612,-4.547905 0.277481,-0.417983 c 0.297916,-0.448763 0.706968,-0.626077 1.13041,-0.490004 0.341308,0.109678 11.609348,14.994282 11.853059,15.657387 0.165151,0.449356 0.175759,0.73495 0.175759,4.731907 0,5.165821 -0.01947,5.281835 -0.931708,5.550715 -0.14789,0.04359 -0.387718,0.03679 -0.532951,-0.01512 z m 57.037452,-0.160102 c -0.502172,-0.360935 -0.523059,-0.571969 -0.523059,-5.284778 0,-3.612464 0.02213,-4.379268 0.136995,-4.745917 0.09514,-0.303683 1.868256,-2.730927 5.8029,-7.943656 3.116248,-4.128492 5.773972,-7.58217 5.906055,-7.674839 0.498196,-0.349536 1.038776,-0.143151 1.380216,0.526946 0.20167,0.395804 0.20277,0.420646 0.20277,4.601445 0,3.579604 -0.0219,4.29715 -0.14725,4.834516 -0.14041,0.60173 -0.41398,0.984566 -5.89328,8.247051 l -5.746036,7.616028 -0.443218,-0.0047 c -0.243771,-0.0026 -0.548012,-0.08003 -0.676093,-0.172087 z M 59.55471,48.207121 C 59.14223,47.94851 58.200036,46.754128 53.542446,40.585617 49.85112,35.696825 47.963395,33.11474 47.850712,32.800294 c -0.246109,-0.686773 -0.226095,-1.949632 0.04194,-2.646496 0.142974,-0.371717 1.809997,-2.641044 5.599322,-7.622382 5.948712,-7.82001 5.8099,-7.665267 6.877997,-7.667337 1.123903,-0.0022 0.88637,-0.266448 6.889423,7.664924 3.864905,5.106402 5.497712,7.34068 5.647267,7.727526 0.306912,0.793879 0.294918,1.883677 -0.02864,2.602576 -0.352481,0.783155 -11.229452,15.081779 -11.678041,15.351692 -0.581376,0.349812 -1.083247,0.34869 -1.645267,-0.0037 z"
       id="path8" />
  </g>
</svg>
