<?xml version="1.0" encoding="UTF-8" standalone="no"?>
<!-- Created with Inkscape (http://www.inkscape.org/) -->

<svg
   width="120"
   height="120"
   viewBox="0 0 120 120"
   version="1.1"
   id="svg1"
   inkscape:export-filename="marcos.svg"
   inkscape:export-xdpi="96"
   inkscape:export-ydpi="96"
   xmlns:inkscape="http://www.inkscape.org/namespaces/inkscape"
   xmlns:sodipodi="http://sodipodi.sourceforge.net/DTD/sodipodi-0.dtd"
   xmlns="http://www.w3.org/2000/svg"
   xmlns:svg="http://www.w3.org/2000/svg">
  <sodipodi:namedview
     id="namedview1"
     pagecolor="#ffffff"
     bordercolor="#111111"
     borderopacity="1"
     inkscape:showpageshadow="0"
     inkscape:pageopacity="0"
     inkscape:pagecheckerboard="1"
     inkscape:deskcolor="#d1d1d1"
     inkscape:document-units="px" />
  <defs
     id="defs1" />
  <g
     inkscape:label="Capa 1"
     inkscape:groupmode="layer"
     id="layer1">
    <path
       style="fill:#000000"
       d="m 95.571956,119.2141 c -1.396191,-0.89402 -1.453876,-1.19868 -1.453876,-7.6785 v -5.86207 l -38.788429,-8.7e-4 c -38.291954,-8.7e-4 -38.798191,-0.007 -39.551125,-0.4659 -0.419483,-0.25576 -0.971956,-0.80823 -1.227718,-1.22772 -0.45907,-0.75293 -0.465033,-1.25917 -0.465897,-39.551121 L 14.084037,25.63949 H 8.2219735 c -6.5038843,0 -6.8070387,-0.05854 -7.68836897,-1.484559 -0.44067855,-0.713033 -0.49062818,-1.148784 -0.49062818,-4.280147 0,-3.95792 0.23752462,-4.749677 1.65255405,-5.508565 0.7107209,-0.381164 1.4268644,-0.427613 6.5929177,-0.427613 H 14.084037 V 8.143018 c 0,-5.1660533 0.04645,-5.8821968 0.427612,-6.5929177 0.758888,-1.41502944 1.550645,-1.65255405 5.508565,-1.65255405 3.131363,0 3.567114,0.04994963 4.280147,0.49062818 1.426023,0.88133027 1.484559,1.18448467 1.484559,7.68836897 v 5.8620626 l 38.788429,8.75e-4 c 38.291951,8.64e-4 38.798191,0.0068 39.551121,0.465897 0.41949,0.255762 0.97196,0.808235 1.22772,1.227718 0.45907,0.752934 0.46503,1.259171 0.4659,39.551125 l 8.7e-4,38.788429 h 5.86207 c 6.50388,0 6.80704,0.05854 7.68837,1.484559 0.44067,0.713032 0.49062,1.148784 0.49062,4.280147 0,3.957924 -0.23752,4.749674 -1.65255,5.508564 -0.71072,0.38116 -1.42686,0.42761 -6.59292,0.42761 h -5.79559 v 5.79559 c 0,5.16605 -0.0465,5.8822 -0.42761,6.59292 -0.76093,1.41884 -1.54756,1.65309 -5.536186,1.64861 -3.168776,-0.004 -3.589477,-0.0523 -4.283208,-0.49655 z M 94.11808,59.80607 V 25.63949 H 59.9515 25.78492 V 59.80607 93.97265 H 59.9515 94.11808 Z"
       id="path1" />
  </g>
</svg>
