<?xml version="1.0" encoding="UTF-8" standalone="no"?>
<!-- Created with Inkscape (http://www.inkscape.org/) -->

<svg
   width="120"
   height="120"
   viewBox="0 0 120 120"
   version="1.1"
   id="svg1"
   inkscape:export-filename="border.svg"
   inkscape:export-xdpi="96"
   inkscape:export-ydpi="96"
   xmlns:inkscape="http://www.inkscape.org/namespaces/inkscape"
   xmlns:sodipodi="http://sodipodi.sourceforge.net/DTD/sodipodi-0.dtd"
   xmlns="http://www.w3.org/2000/svg"
   xmlns:svg="http://www.w3.org/2000/svg">
  <sodipodi:namedview
     id="namedview1"
     pagecolor="#ffffff"
     bordercolor="#111111"
     borderopacity="1"
     inkscape:showpageshadow="0"
     inkscape:pageopacity="0"
     inkscape:pagecheckerboard="1"
     inkscape:deskcolor="#d1d1d1"
     inkscape:document-units="px" />
  <defs
     id="defs1" />
  <g
     inkscape:label="Capa 1"
     inkscape:groupmode="layer"
     id="layer1">
    <path
       style="fill:#000000"
       d="m 57.642211,114.06153 -2.652518,-5.30154 -4.465082,-6.38111 -4.465081,-6.381107 -3.211077,-3.433626 -3.211076,-3.433625 -4.265648,5.552002 -4.265647,5.552006 -1.859954,1.15234 -1.859953,1.15234 -3.290856,0.47288 -3.290855,0.47288 -3.641339,-1.79649 -3.641338,-1.796491 -1.500623,-2.7138 -1.500624,-2.713801 0.0031,-3.516946 0.0031,-3.516947 1.593167,-2.473499 1.593167,-2.473499 2.519099,-1.763137 2.5191,-1.763138 -1.030165,-0.619208 -1.030165,-0.619208 -2.454429,-0.01193 -2.45443,-0.01193 2.974882,-2.816249 2.974882,-2.816249 L 14.019642,66.11842 10.307484,60.174386 8.0086492,54.720778 5.7098139,49.26717 4.0557134,43.036423 2.401613,36.805676 1.5247934,30.713283 0.6479739,24.62089 V 17.307461 9.9940328 L 8.2308233,9.7700952 15.813673,9.5461577 18.338686,5.2625191 20.8637,0.97888051 h 0.907257 0.907258 l 3.894493,4.47834939 3.894494,4.4783495 h 3.523272 3.523272 L 39.601289,6.5634042 41.688832,3.1912291 42.96838,2.1859247 44.247928,1.1806203 47.11789,3.252919 49.987852,5.3252177 52.536398,3.5414708 55.084944,1.7577239 h 5.209785 5.209786 l 2.548545,1.7837469 2.548546,1.7837469 2.869962,-2.0722987 2.869962,-2.0722987 1.279548,1.0053044 1.279549,1.0053044 2.087542,3.3721751 2.087543,3.3721752 h 3.523272 3.523273 L 94.01675,5.4572299 97.911243,0.97888051 h 0.907258 0.907257 l 2.525012,4.28363859 2.52502,4.2836386 7.70247,0.2254361 7.70247,0.2254362 -0.49063,11.067793 -0.49063,11.067793 -2.03207,8.280482 -2.03207,8.280482 -2.24095,5.349277 -2.24094,5.349277 -3.68229,6.080618 -3.68228,6.080619 1.57796,1.707815 1.57796,1.707815 1.09009,1.362976 1.09008,1.362976 h -0.47239 -0.47239 l -9.295231,-7.914236 -9.295235,-7.914237 0.10744,-0.847751 0.107439,-0.847752 0.303918,-1.13587 0.303917,-1.13587 -7.262541,-0.936535 -7.262542,-0.936536 -0.446742,-0.422919 -0.446742,-0.42292 2.669743,-3.191078 2.669742,-3.191078 -2.514867,-5.217404 -2.514867,-5.217404 -2.975315,-7.094976 -2.975314,-7.094975 -2.222342,-1.968936 -2.222343,-1.968935 -1.851106,-0.529405 -1.851106,-0.529405 v 5.455422 5.455422 l -2.863565,-0.439914 -2.863565,-0.439913 -2.147857,1.332285 -2.147857,1.332285 -2.343389,4.803209 -2.343388,4.803209 -0.552532,2.920663 -0.552532,2.920662 h 0.773225 0.773225 l 3.783915,2.372712 3.783915,2.372712 3.107902,3.858035 3.107901,3.858036 h 7.13253 7.132529 l 2.553704,0.483505 2.553704,0.483506 13.491408,10.760458 13.491411,10.760458 1.67785,2.019301 1.67785,2.019301 0.52845,2.961065 0.52845,2.961065 -1.3735,3.249655 -1.37349,3.249655 -2.34904,1.871185 -2.34903,1.87118 -3.26409,0.52206 -3.264086,0.52206 -3.551853,-1.49083 -3.551853,-1.49082 -5.34764,-7.205386 -5.34764,-7.205385 -0.245187,3.033649 -0.245186,3.033649 -8.972287,5.018816 -8.972287,5.018817 -0.243736,8.56728 -0.243736,8.56727 z m -30.905067,-16.514021 1.773873,-1.176215 6.586908,-8.848153 6.586908,-8.848154 0.255095,-3.762822 0.255096,-3.762822 5.09597,-2.784596 5.095971,-2.784595 0.594467,-0.562768 0.594467,-0.562768 H 48.66643 43.756961 L 29.645064,75.74334 15.533168,87.032065 l -0.52234,2.635841 -0.52234,2.635841 1.306863,2.392435 1.306864,2.392435 1.439767,0.79387 1.439768,0.79387 2.490761,0.02368 2.490761,0.02368 z m 76.813346,-1.100404 2.40486,-2.276619 V 91.233993 88.2975 L 101.62604,84.359202 97.296734,80.420905 87.198105,72.43776 77.099477,64.454616 h -5.088899 -5.088899 l 1.622808,1.043032 1.622808,1.043033 4.318412,2.267052 4.318411,2.267052 0.0095,3.504795 0.0095,3.504795 6.58933,8.956699 6.589331,8.956699 1.720335,1.362976 1.720335,1.362975 h 2.851641 2.85164 z m -35.851336,-3.040453 6.581711,-3.703452 0.233137,-7.837871 0.233138,-7.837871 -7.136068,-4.037454 -7.136067,-4.037453 -6.671849,3.765053 -6.671849,3.765052 -0.231435,8.143065 -0.231435,8.143064 6.401789,3.623703 6.401789,3.623704 0.822714,0.04696 0.822714,0.04696 z m -11.422933,-14.535297 -4.018508,-2.631988 -0.813572,-0.770189 -0.813572,-0.770189 5.037759,-2.407446 5.037758,-2.407447 v 5.852537 5.852537 L 60.500408,81.54626 60.294729,81.50335 Z M 29.442959,61.34761 v -0.440616 l -1.317987,-1.78135 -1.317986,-1.781351 0.379463,-0.359228 0.379463,-0.359229 7.108878,-0.900439 7.108877,-0.900439 v -0.668612 -0.668612 l -1.784864,-2.285426 -1.784865,-2.285425 2.97512,-6.055604 2.97512,-6.055603 1.754669,-4.283639 1.754669,-4.283638 2.581849,-4.592926 2.581849,-4.592925 2.494687,-1.4402 2.494687,-1.440199 h 3.290855 3.290855 l 2.629119,1.517593 2.629119,1.517592 1.37249,1.982988 1.37249,1.982988 3.6514,8.37387 3.6514,8.373869 2.432167,4.615879 2.432167,4.615879 -1.792722,1.806508 -1.792721,1.806508 0.346041,0.287345 0.346042,0.287344 6.842666,0.806514 6.842667,0.806514 0.467523,0.442593 0.467523,0.442593 -1.345514,1.944012 -1.345514,1.944013 v 0.779145 0.779145 l 2.577283,2.778837 2.577283,2.778838 1.175193,-1.588355 1.17519,-1.588355 3.18651,-6.031153 3.18651,-6.031153 2.11087,-6.902006 2.11087,-6.902006 v -0.421771 -0.42177 l -2.96715,2.89226 -2.96715,2.892259 -0.30418,-0.287966 -0.30419,-0.287965 1.51791,-3.847795 1.51791,-3.847794 0.89451,-5.062482 0.89451,-5.062482 0.32679,-4.088928 0.32679,-4.088928 h -4.21707 -4.21707 l -1.6074,-2.825594 -1.607396,-2.825594 -1.000439,6.135678 -1.000439,6.135679 -2.11949,5.062482 -2.119491,5.062482 -1.573849,1.935472 -1.573849,1.935472 -0.485819,-0.459912 -0.485818,-0.459913 1.240104,-4.980355 1.240104,-4.980354 0.01216,-4.867772 0.01216,-4.867771 H 84.673113 78.199728 L 77.74497,12.956647 77.290212,9.746968 76.41746,8.9207543 75.544708,8.0945407 l -3.2575,2.4782063 -3.257499,2.478206 h -0.4596 -0.459599 V 11.951922 10.852891 L 65.579245,8.8365485 63.047981,6.8202058 h -2.753253 -2.753253 l -2.531264,2.0163427 -2.531265,2.0163425 v 1.099031 1.099031 h -0.459599 -0.4596 L 48.302249,10.572747 45.04475,8.0945407 44.171997,8.9207543 43.299245,9.746968 l -0.454758,3.209679 -0.454758,3.209679 h -6.473385 -6.473385 l 0.01216,4.867771 0.01216,4.867772 1.240104,4.980354 1.240104,4.980355 -0.485818,0.459913 -0.485819,0.459912 -1.573849,-1.935472 -1.573849,-1.935472 -2.11949,-5.062482 -2.119491,-5.062482 -1.000439,-6.135679 -1.000439,-6.135678 -1.607396,2.825594 -1.607396,2.825594 h -4.217069 -4.21707 l 0.326786,4.088928 0.326785,4.088928 0.894511,5.062482 0.894511,5.062482 1.517912,3.847794 1.517911,3.847795 -0.304186,0.287965 -0.304186,0.287966 -2.967147,-2.892259 -2.9671475,-2.89226 v 0.329841 0.32984 l 1.6739865,5.718662 1.673986,5.718662 1.999423,4.497107 1.999424,4.497107 2.950861,4.766397 2.950861,4.766398 3.659653,-2.895968 3.659652,-2.895967 z m 32.799606,-3.709867 0.806289,-1.426228 4.144301,-3.669798 4.144302,-3.669797 2.147656,-0.926358 2.147657,-0.926359 0.751199,1.123984 0.751198,1.123983 0.0126,0.427672 0.0126,0.427672 -2.843792,0.973494 -2.843792,0.973494 -5.018252,3.497235 -5.018251,3.497235 z M 56.8825,46.735929 56.318421,44.59411 54.398684,41.168025 52.478947,37.74194 V 36.079365 34.41679 l 7.815589,0.02618 7.815589,0.02618 1.93e-4,2.141413 1.93e-4,2.141412 -2.026193,3.699913 -2.026192,3.699912 -0.416128,1.362976 -0.416129,1.362976 h -2.889645 -2.889645 z"
       id="path8" />
  </g>
</svg>
