<?xml version="1.0" encoding="UTF-8" standalone="no"?>
<!-- Created with Inkscape (http://www.inkscape.org/) -->

<svg
   width="120"
   height="120"
   viewBox="0 0 120 120"
   version="1.1"
   id="svg1"
   inkscape:export-filename="skins.svg"
   inkscape:export-xdpi="96"
   inkscape:export-ydpi="96"
   xmlns:inkscape="http://www.inkscape.org/namespaces/inkscape"
   xmlns:sodipodi="http://sodipodi.sourceforge.net/DTD/sodipodi-0.dtd"
   xmlns="http://www.w3.org/2000/svg"
   xmlns:svg="http://www.w3.org/2000/svg">
  <sodipodi:namedview
     id="namedview1"
     pagecolor="#ffffff"
     bordercolor="#111111"
     borderopacity="1"
     inkscape:showpageshadow="0"
     inkscape:pageopacity="0"
     inkscape:pagecheckerboard="1"
     inkscape:deskcolor="#d1d1d1"
     inkscape:document-units="px" />
  <defs
     id="defs1" />
  <g
     inkscape:label="Capa 1"
     inkscape:groupmode="layer"
     id="layer1">
    <path
       style="fill:#000000;stroke-width:1.0187"
       d="M 56.76006,116.34926 C 53.132871,109.55372 50.713989,102.83959 47.305359,90.105694 42.011505,70.329005 41.300051,69.706715 27.082695,72.417448 14.313348,74.852099 13.828988,74.130146 21.514303,64.117588 30.623207,52.250356 30.293878,49.793032 18.646169,42.716691 15.731167,40.945739 9.2441768,29.116468 10.528794,27.914352 c 0.602109,-0.563441 28.0236,12.544694 28.909906,13.819633 0.38246,0.550164 -0.188827,1.652696 -1.269526,2.450071 -2.290321,1.689874 -2.610606,7.158294 -0.527717,9.010053 1.036503,0.921487 3.519892,0.835014 8.907467,-0.310167 11.550975,-2.455267 11.8066,-2.19537 4.898145,4.980003 -4.55157,4.727426 -4.55157,4.727426 -0.714377,7.249579 2.292893,1.507099 4.780444,4.883238 6.180935,8.388853 2.899203,7.257091 3.188567,7.257091 6.08777,0 1.40049,-3.505615 3.888042,-6.881754 6.180935,-8.388853 3.837192,-2.522153 3.837192,-2.522153 -0.714377,-7.249579 -6.908456,-7.175373 -6.65283,-7.43527 4.898145,-4.980003 5.387575,1.145181 7.870963,1.231654 8.907467,0.310167 2.082889,-1.851759 1.762604,-7.320179 -0.527717,-9.010053 -1.0807,-0.797375 -1.664766,-1.881523 -1.297927,-2.409217 1.002816,-1.442538 28.433007,-14.330744 29.147827,-13.695245 1.81649,1.614924 -6.27786,13.924703 -10.671781,16.229506 -9.285956,4.870882 -9.390045,8.187924 -0.621594,19.808488 7.548675,10.004039 7.093165,10.695209 -5.470047,8.29986 C 78.450684,69.675391 78.195658,69.914526 72.1119,91.846742 65.453851,115.8493 60.615266,123.57199 56.76006,116.34926 Z M 55.941211,29.215146 c -6.238503,-17.626783 0.958987,-39.712253 7.950821,-24.3970663 3.813482,8.3531973 3.819397,12.2711533 0.03508,23.2362473 -3.824233,11.080758 -4.443178,11.170727 -7.985903,1.160819 z M 24.987457,30.438528 C 22.084282,28.752037 15.677832,25.063508 10.750901,22.2418 0.90827701,16.604819 0.59635089,15.442915 8.6028162,14.240333 c 4.3606718,-0.654979 6.6242228,-0.231337 11.9914908,2.2443 8.094275,3.733463 12.422766,3.827841 20.262185,0.441791 5.199,-2.245584 6.214226,-2.368407 7.27303,-0.879894 5.236934,7.36231 -14.313454,19.520651 -23.142065,14.391998 z m 53.774707,-2.943743 c -8.12824,-5.952042 -9.400822,-8.040266 -6.976662,-11.448255 1.058803,-1.488513 2.07403,-1.36569 7.27303,0.879894 7.839419,3.38605 12.16791,3.291672 20.262185,-0.441791 6.624713,-3.055629 16.101533,-3.25702 18.098363,-0.384606 0.74157,1.066737 -24.788491,16.393656 -28.429824,17.067784 -1.088691,0.201553 -5.690882,-2.35131 -10.227092,-5.673026 z"
       id="path8" />
  </g>
</svg>
