<?xml version="1.0" encoding="UTF-8" standalone="no"?>
<!-- Created with Inkscape (http://www.inkscape.org/) -->

<svg
   width="120"
   height="120"
   viewBox="0 0 120 120"
   version="1.1"
   id="svg1"
   inkscape:export-filename="icon.svg"
   inkscape:export-xdpi="96"
   inkscape:export-ydpi="96"
   xmlns:inkscape="http://www.inkscape.org/namespaces/inkscape"
   xmlns:sodipodi="http://sodipodi.sourceforge.net/DTD/sodipodi-0.dtd"
   xmlns="http://www.w3.org/2000/svg"
   xmlns:svg="http://www.w3.org/2000/svg">
  <sodipodi:namedview
     id="namedview1"
     pagecolor="#ffffff"
     bordercolor="#111111"
     borderopacity="1"
     inkscape:showpageshadow="0"
     inkscape:pageopacity="0"
     inkscape:pagecheckerboard="1"
     inkscape:deskcolor="#d1d1d1"
     inkscape:document-units="px" />
  <defs
     id="defs1" />
  <g
     inkscape:label="Capa 1"
     inkscape:groupmode="layer"
     id="layer1">
    <path
       style="fill:#000000;stroke-width:1.19691"
       d="M 38.056499,115.36958 C 19.269307,106.36209 7.1357946,94.168244 1.9197251,79.053115 0.52977046,75.025304 -0.36288944,54.15182 0.85481443,54.15182 c 0.21905907,0 3.11204377,1.895853 6.42885677,4.21301 C 17.069452,65.201263 35.994052,44.990621 37.87004,25.69993 39.037917,13.690716 50.752998,0.42210595 60.188262,0.42210595 c 7.850646,0 21.106189,14.88400805 21.106189,23.69911905 0,17.631494 20.518659,41.098151 30.225299,34.567895 8.86254,-5.962381 8.20123,-6.470627 7.7803,5.979444 -0.62746,18.55819 -8.33471,31.956347 -24.922871,43.325446 -4.020723,2.7557 -20.128946,11.05731 -21.48839,11.07436 -0.300532,0.004 1.90574,-2.42777 4.902825,-5.40344 9.319048,-9.2524 13.76603,-20.173617 14.509417,-35.633238 0.226965,-4.720007 0.242909,-8.413924 0.03543,-8.208706 -0.207477,0.205217 -2.912035,3.73123 -6.010127,7.835582 -7.76664,10.289243 -13.186255,15.22324 -8.746221,7.962527 6.83327,-11.17433 6.850706,-24.85939 0.04424,-34.722469 -4.714691,-6.831942 -5.258757,-6.834404 -12.099002,-0.05475 -5.93738,5.884789 -5.93738,5.884789 -11.916414,-0.04128 -12.97652,-12.861577 -22.535992,12.080674 -12.695219,33.123939 3.544689,7.579875 0.232737,4.706587 -9.375331,-8.13358 -1.99629,-2.667829 -3.954132,-5.186409 -4.350761,-5.596845 -0.463254,-0.479378 -0.570426,2.189296 -0.299688,7.46246 0.789826,15.383428 5.667384,27.3302 14.852809,36.37949 2.812114,2.77044 4.862522,5.03233 4.556461,5.02643 -0.306061,-0.006 -4.014381,-1.6686 -8.240709,-3.69491 z m 16.291977,-5.75633 c -2.675885,-4.38087 -5.612674,-9.19982 -6.526196,-10.708768 -1.660951,-2.743544 -1.660951,-2.743544 0.602482,-6.301862 2.263432,-3.558318 2.263432,-3.558318 -1.266911,-10.509027 -3.1229,-6.148514 -3.570347,-7.639665 -3.876958,-12.920257 -0.622307,-10.717619 0.09569,-11.152811 4.327009,-2.622678 9.114871,18.37515 18.999057,17.052162 25.831865,-3.457568 1.478914,-4.439192 2.297394,-4.256689 2.976153,0.663616 0.725426,5.258597 -0.866531,12.028875 -4.49592,19.120262 -3.159062,6.172424 -3.159062,6.172424 -0.951468,9.708562 2.207594,3.536138 2.207594,3.536138 -4.286002,14.26667 -7.736285,12.78405 -6.395259,12.48386 -12.334054,2.76105 z"
       id="path8" />
  </g>
</svg>
