<?xml version="1.0" standalone="no"?>
<!DOCTYPE svg PUBLIC "-//W3C//DTD SVG 20010904//EN"
 "http://www.w3.org/TR/2001/REC-SVG-20010904/DTD/svg10.dtd">
<svg version="1.0" xmlns="http://www.w3.org/2000/svg"
 width="1280.000000pt" height="640.000000pt" viewBox="0 0 1280.000000 640.000000"
 preserveAspectRatio="xMidYMid meet">
<g transform="translate(0.000000,640.000000) scale(0.100000,-0.100000)"
fill="#000000" stroke="none">
<path d="M1755 5389 c-448 -17 -1164 -62 -1514 -94 -86 -8 -162 -15 -168 -15
-9 0 -13 -15 -13 -43 0 -38 4 -45 33 -62 170 -99 737 -615 1115 -1015 313
-330 512 -587 512 -658 0 -11 -17 -39 -38 -63 -127 -144 -461 -608 -903 -1254
-357 -521 -480 -705 -471 -705 5 0 69 29 143 64 222 106 434 177 749 250 584
135 1087 170 2135 147 1063 -23 1597 -68 2190 -186 312 -62 533 -119 1267
-329 822 -235 1065 -301 1208 -325 708 -121 2106 -134 4305 -41 127 6 246 10
266 10 28 0 38 5 42 20 3 12 14 20 26 20 54 0 -3 100 -152 270 -182 207 -254
280 -519 530 -388 366 -543 536 -675 737 l-54 82 174 173 c224 223 392 433
649 813 189 278 480 753 657 1072 35 62 67 115 72 119 11 7 12 74 0 74 -4 0
-251 -75 -547 -166 -727 -224 -859 -256 -1230 -304 -451 -57 -887 -68 -1844
-46 -759 17 -871 23 -1170 62 -597 78 -1230 202 -3102 608 -860 187 -964 205
-1368 236 -392 30 -1258 39 -1775 19z"/>
</g>
</svg>
